<?xml version="1.0" encoding="utf-8"?>
<!-- Generator: Adobe Illustrator 19.1.0, SVG Export Plug-In . SVG Version: 6.00 Build 0)  -->
<svg width="600" height="600"  version="1.1" xmlns="http://www.w3.org/2000/svg" xmlns:xlink="http://www.w3.org/1999/xlink" x="0px" y="0px"
	 viewBox="-253.4 235.4 117.9 122.4" style="enable-background:new -253.4 235.4 117.9 122.4;" xml:space="preserve">
<style type="text/css">
	svg{margin:auto auto;}
	.st0{fill:#CCCCCC;}
	.st1{fill:#EDE66B;}

.st0{
-webkit-animation-name: move;
    -webkit-animation-duration: 2000ms;
    -webkit-animation-iteration-count: infinite;
    -webkit-animation-timing-function: linear;
	
}
	
	.st1{
  
    

    -webkit-animation-name: spin;
    -webkit-animation-duration: 2000ms;
    -webkit-animation-iteration-count: infinite;
    -webkit-animation-timing-function: linear;

   
    animation-name: spin;
    animation-duration: 2000ms;
    animation-iteration-count: infinite;
    animation-timing-function: linear;
}
@-webkit-keyframes move { 
        
             0%  { -webkit-transform: translateY(0px)
               ;opacity:0; }
	20%  { -webkit-transform:  translateY(20px);opacity:1;}
	40%  { -webkit-transform:  translateY(-30px) opacity:1; }
	60%  { -webkit-transform:   translateY(-80px)opacity:1; }
	
	
	
	
    }
    

@-webkit-keyframes spin { 
        
             0%  { -webkit-transform: rotate(0deg);-webkit-transform-origin:50% 5%;opacity:1;}
             15%  { -webkit-transform: rotate(70deg);-webkit-translateX(-40px);

             -webkit-transform-origin:50% 5%;opacity:0;}
             20%  { -webkit-transform: rotate(15deg);-webkit-transform-origin:50% 5%;opacity:0;}
	40%  { -webkit-transform: rotate(0deg);-webkit-transform-origin:50% 5%opacity:1; }
	60%  { -webkit-transform: rotate(-50deg);-webkit-transform-origin:50% 5%;opacity:0;}
	70%  { -webkit-transform: rotate(0deg);-webkit-transform-origin:50% 5%opacity:1; }
	80%  { -webkit-transform: rotate(30deg);-webkit-translateX(-40px);

             -webkit-transform-origin:50% 5%;opacity:0;}

             90%  { -webkit-transform: rotate(15deg);-webkit-transform-origin:50% 5%;opacity:1;}
             95%  { -webkit-transform: rotate(-70deg);-webkit-transform-origin:50% 5%;opacity:0;}
             100%  { -webkit-transform: rotate(0deg);-webkit-transform-origin:50% 5%;opacity:1;}
	
	
	
	
    }
    
    
	
</style>

<g id="cloud">
	<path class="st0" d="M-150.9,250.8L-150.9,250.8c0-8.5-7-15.4-15.4-15.4H-202c-8.5,0-15.4,6.9-15.4,15.4H-238
		c-8.5,0-15.4,6.9-15.4,15.4s6.9,15.4,15.4,15.4h0.1l0,0c0,8.5,6.9,15.4,15.4,15.4h35.7c8.5,0,15.4-6.9,15.4-15.4l0,0h20.5
		c8.5,0,15.4-6.9,15.4-15.4C-135.4,257.7-142.4,250.8-150.9,250.8z"/>
</g>
<g id="lightening">
	<g>
		<path class="st1" d="M-177.6,277.8h23c1.1,0,1.8,1.1,1.4,2.1l-11.4,26.3c-0.4,1,0.3,2.1,1.4,2.1h6c1.2,0,1.9,1.2,1.3,2.3
			l-26.5,46.7c-0.6,1-2.1,0.4-1.9-0.7l7.6-34.3c0.2-0.9-0.5-1.8-1.5-1.8h-8c-1,0-1.7-0.9-1.5-1.8l8.6-39.6
			C-178.9,278.3-178.3,277.8-177.6,277.8z"/>
		<path class="st1" d="M-153.2,279.9c0.4-1-0.3-2.1-1.4-2.1h-15.8v58.3l14.5-25.5c0.6-1-0.2-2.3-1.3-2.3h-6c-1.1,0-1.8-1.1-1.4-2.1
			L-153.2,279.9z"/>
	</g>
</g>
</svg>
